<svg id="Layer_1" data-name="Layer 1" xmlns="http://www.w3.org/2000/svg" xmlns:xlink="http://www.w3.org/1999/xlink" viewBox="0 0 355 396"><defs><style>.cls-1{fill:none;}.cls-2{clip-path:url(#clip-path);}.cls-3{fill:#fff;}</style><clipPath id="clip-path"><path class="cls-1" d="M135.91,373.81A22.07,22.07,0,0,0,158,395.89h45.23a22.08,22.08,0,0,0,22.1-22.08ZM125.36,344a22.07,22.07,0,0,0,22.09,22.07h66.62A22.08,22.08,0,0,0,236.18,344Zm25.58-166.91a27.44,27.44,0,1,1,27.45,27.42,27.44,27.44,0,0,1-27.45-27.42m20.46-54.06v10.58a43.6,43.6,0,0,0-18.75,7.79l-7.5-7.51-9.87,9.86,7.49,7.51A43.56,43.56,0,0,0,135,170H124.41v13.93H135a43.66,43.66,0,0,0,7.79,18.75l-7.49,7.5,9.87,9.85,7.5-7.49a43.67,43.67,0,0,0,18.75,7.79v10.57h14V220.33a43.79,43.79,0,0,0,18.77-7.79l7.5,7.49,9.86-9.85-7.5-7.5a43.48,43.48,0,0,0,7.8-18.75h10.59V170H221.78a43.53,43.53,0,0,0-7.8-18.74l7.5-7.49-9.86-9.86-7.5,7.51a43.73,43.73,0,0,0-18.77-7.79V123.05ZM137.8,263.9V250.73l-10.56-7.9A84.37,84.37,0,0,1,93,174.76a85.2,85.2,0,1,1,138.29,66.5l-9.92,7.9v48.45H137.8ZM293.61,14.13a32.9,32.9,0,0,0-9.06,29.39l-.26.24L243.63,84.52a111.6,111.6,0,0,0-131.71.6l-41.21-41-.27-.23A33.06,33.06,0,0,0,24.74,7.64L46.1,28.87a10.71,10.71,0,0,1,0,15.15L44,46.13a10.74,10.74,0,0,1-15.17.06L7.49,24.94A33.06,33.06,0,0,0,44,70.42a2.54,2.54,0,0,0,.23.26L85.9,112.16a111.07,111.07,0,0,0,2.25,128.2L44.58,284c-.08.08-.16.18-.24.26A33.05,33.05,0,0,0,8.08,330l21.26-21.34a10.74,10.74,0,0,1,15.18,0l2.11,2.1a10.71,10.71,0,0,1,0,15.16L25.41,347.21a33.09,33.09,0,0,0,45.52-36.49c.07-.07.17-.15.25-.22l40.25-40.35V312.4a22.08,22.08,0,0,0,22.1,22.07h92.09a22.09,22.09,0,0,0,22.1-22.07V273.28l37,36.88c.08.08.19.15.26.23a33.08,33.08,0,0,0,45.72,36.24l-21.36-21.24a10.7,10.7,0,0,1-.05-15.16l2.1-2.11a10.74,10.74,0,0,1,15.18,0L348,329.32a33.06,33.06,0,0,0-36.51-45.48c-.09-.09-.15-.18-.24-.26L268.1,240.64a111.16,111.16,0,0,0,1.79-129.33l41-41.1.23-.26A33.05,33.05,0,0,0,347.4,24.27L326.14,45.61a10.73,10.73,0,0,1-15.17,0l-2.11-2.1a10.72,10.72,0,0,1-.05-15.16L330.07,7.05a33.09,33.09,0,0,0-36.46,7.08"/></clipPath></defs><title>bulb_white</title><g class="cls-2"><rect class="cls-3" x="0.28" y="-0.16" width="354.91" height="400.6"/></g></svg>
