<svg id="Layer_1" data-name="Layer 1" xmlns="http://www.w3.org/2000/svg" xmlns:xlink="http://www.w3.org/1999/xlink" viewBox="0 0 1155 68.84"><defs><style>.cls-1{fill:none;}.cls-2{fill:#090a26;}.cls-3{clip-path:url(#clip-path);}.cls-4{fill:#fff;}</style><clipPath id="clip-path"><rect class="cls-1" width="579.19" height="69.44"/></clipPath></defs><title>title</title><rect class="cls-2" width="621.19" height="69.44"/><g class="cls-3"><path class="cls-4" d="M559.05,0H523.77V69.44h16v-55h19.24a4.05,4.05,0,0,1,4.1,3.94v51h16v-51C579.19,8.33,570,0,559.05,0M493.24,0H478.62c-11,0-20.27,8.33-20.27,18.4V51.15c0,10.07,9.24,18.29,20.27,18.29h14.62c11.16,0,20.27-8.22,20.27-18.29V18.4C513.51,8.33,504.4,0,493.24,0m4.23,51.15A4.08,4.08,0,0,1,493.24,55H478.62a4.08,4.08,0,0,1-4.23-3.82V18.4a4.08,4.08,0,0,1,4.23-3.82h14.62a4.08,4.08,0,0,1,4.23,3.82ZM432.05,0V28.82L409,34.37V0h-16V69.44h16v-20l23.09-5.67V69.44h16V0Zm-102,0V14.47h18.34v55h16.16v-55h18.09V0ZM298.25,0h-14.5c-11.29,0-20.4,8.22-20.4,18.4v51h16.16v-20l23-5.67V69.44h16.16v-51c0-10.18-9.11-18.4-20.4-18.4m4.23,28.82-23,5.56v-16a4.08,4.08,0,0,1,4.23-3.82h14.5a4.08,4.08,0,0,1,4.23,3.82ZM253.74,0H236.81l-9,30.21L215.77,33.1V0h-16V69.44h16V48.14L228.21,45l7.31,24.42H252.2l-9.75-32.75ZM188.32,23.38v-5c0-10.18-9-18.4-20.14-18.4H153.81c-11.29,0-20.4,8.22-20.4,18.4V51c0,10.18,9.11,18.4,20.4,18.4h14.37c11.16,0,20.14-8.22,20.14-18.4V43.86H172.41V51A4.09,4.09,0,0,1,168.18,55H153.81c-2.57,0-4.49-1.74-4.49-3.94V18.4c0-2.2,1.92-3.94,4.49-3.94h14.37a4.09,4.09,0,0,1,4.23,3.94v5ZM101.6,0H87.1c-11.29,0-20.4,8.22-20.4,18.4v51H82.87v-20l23-5.67V69.44H122v-51C122,8.22,112.89,0,101.6,0m4.23,28.82-23,5.56v-16a4.08,4.08,0,0,1,4.23-3.82h14.5a4.08,4.08,0,0,1,4.23,3.82ZM39.13,0V28.82L16,34.37V0H0V69.44H16v-20l23.09-5.67V69.44h16V0Z"/></g><rect class="cls-2" x="621.14" width="533.6" height="68.5"/><path class="cls-4" d="M667.36,16.73v7.4c0,5.72-3.7,11.54-8.63,13.56A35.11,35.11,0,0,1,654.25,39l8.07,29.81h-5.16l-7.62-28.69-23.42,6.28V68.84h-4.93V1.6h31A15.14,15.14,0,0,1,667.36,16.73ZM626.12,41.38l29.81-7.84c3.81-1,6.5-5.94,6.5-9.41v-7.4a10.1,10.1,0,0,0-10.2-10.2H626.12Z"/><path class="cls-4" d="M679.58,16.73V40.94l24-6.61v5.38l-24,6.39v7.73A10.38,10.38,0,0,0,689.78,64h21.63v4.82H689.78a14.93,14.93,0,0,1-15.13-15V16.73A15.14,15.14,0,0,1,689.78,1.6h21.63v5H689.78A10.14,10.14,0,0,0,679.58,16.73Z"/><path class="cls-4" d="M723.74,64.47a14.83,14.83,0,0,1-4.48-10.64V16.62a15,15,0,0,1,15-15H749a14.92,14.92,0,0,1,14.9,13.78l.11,1.12H759l-.11-1a10,10,0,0,0-10-9H734.28a10.19,10.19,0,0,0-10.09,10.09v37.2a10.19,10.19,0,0,0,10.09,10.08H749a10.12,10.12,0,0,0,10.2-10V42.39l-11.88,2.92V40.15l16.58-4.26v18a15,15,0,0,1-4.37,10.64A14.83,14.83,0,0,1,749,68.84H734.28A14.73,14.73,0,0,1,723.74,64.47Z"/><path class="cls-4" d="M777,68.84h-5.16V1.6H777Z"/><path class="cls-4" d="M831.22,53.71a15.21,15.21,0,0,1-15.13,15.13H800a15.53,15.53,0,0,1-13.78-8.4l-.67-1.57h5.6l.33.45A10.06,10.06,0,0,0,800,63.91h16.14a10.23,10.23,0,0,0,10.2-10.2V46.54a10.39,10.39,0,0,0-8.52-10h-.56a29.75,29.75,0,0,0-3.92.56l-13.11,3.14a12.48,12.48,0,0,1-10.76-2,12.71,12.71,0,0,1-4.48-10c-.11-7.06-.11-11.43-.11-11.54A14.71,14.71,0,0,1,789.31,6,15.06,15.06,0,0,1,800.06,1.6h16.81A13.92,13.92,0,0,1,825.61,5a15.28,15.28,0,0,1,5,7.62l.33,1.34h-5.27l-.11-.67a9.73,9.73,0,0,0-9.08-6.73H800.06a10.14,10.14,0,0,0-10.31,10V28.27a7.7,7.7,0,0,0,2.69,6.05,6.63,6.63,0,0,0,4.37,1.46,8.37,8.37,0,0,0,2.24-.33l12.55-3.14a23.91,23.91,0,0,1,4.48-.67,15.16,15.16,0,0,1,15.13,14.9Z"/><path class="cls-4" d="M881.2,6.65H862.83V68.84h-4.93V6.65H839.07v-5H881.2Z"/><path class="cls-4" d="M934.66,16.73v7.4c0,5.72-3.7,11.54-8.63,13.56A35.11,35.11,0,0,1,921.55,39l8.07,29.81h-5.16l-7.62-28.69-23.42,6.28V68.84h-4.93V1.6h31A15.14,15.14,0,0,1,934.66,16.73ZM893.42,41.38l29.81-7.84c3.81-1,6.5-5.94,6.5-9.41v-7.4a10.1,10.1,0,0,0-10.2-10.2H893.42Z"/><path class="cls-4" d="M982,38l-35,9.41v21.4h-5V16.73A15.12,15.12,0,0,1,957.08,1.6h14.79A15.18,15.18,0,0,1,982.52,6a15,15,0,0,1,4.37,10.76V68.84H982ZM947,16.73V42.06l35-9.19V16.73a10.14,10.14,0,0,0-10.08-10.2H957.08A10.14,10.14,0,0,0,947,16.73Z"/><path class="cls-4" d="M1036.87,6.65H1018.5V68.84h-4.93V6.65H994.74v-5h42.13Z"/><path class="cls-4" d="M1049.32,68.84h-5.16V1.6h5.16Z"/><path class="cls-4" d="M1097.73,6.09a14.83,14.83,0,0,1,4.48,10.64V53.82a15.26,15.26,0,0,1-15.13,15h-14.9a15.16,15.16,0,0,1-15-15V16.73a15.18,15.18,0,0,1,4.37-10.64,15,15,0,0,1,10.65-4.48h14.9A14.64,14.64,0,0,1,1097.73,6.09Zm-.56,47.74V16.73a10.14,10.14,0,0,0-10.08-10.2h-14.9a10.12,10.12,0,0,0-10,10.2V53.82a10,10,0,0,0,10,10h14.9A10,10,0,0,0,1097.17,53.82Z"/><path class="cls-4" d="M1140.32,6.65H1115V68.84h-4.93V1.6h30.26a14.78,14.78,0,0,1,10.42,4.48A15.27,15.27,0,0,1,1155,16.73V68.84h-4.93V16.73A10,10,0,0,0,1140.32,6.65Z"/></svg>